<svg xmlns="http://www.w3.org/2000/svg" width="512" height="512" xmlns:v="https://vecta.io/nano"><path d="M256 0C115.391 0 0 115.391 0 256c0 119.988 84.195 228.984 196 256v-84.695c-11.078 2.426-21.273 2.496-32.551-.828-15.129-4.465-27.422-14.543-36.547-29.91-5.816-9.812-16.125-20.453-26.879-19.672l-2.637-29.883c23.254-1.992 43.371 14.168 55.313 34.23 5.305 8.922 11.41 14.152 19.246 16.465 7.574 2.23 15.707 1.16 25.184-2.187 2.379-18.973 11.07-26.074 17.637-36.074v-.016c-66.68-9.945-93.254-45.32-103.801-73.242-13.977-37.074-6.477-83.391 18.238-112.66.48-.57 1.348-2.062 1.012-3.105-11.332-34.23 2.477-62.547 2.984-65.551 13.078 3.867 15.203-3.891 56.809 21.387l7.191 4.32c3.008 1.793 2.063.77 5.07.543 17.371-4.719 35.684-7.324 53.727-7.559 18.18.234 36.375 2.84 54.465 7.75l2.328.234c-.203-.031.633-.148 2.035-.984 51.973-31.48 50.105-21.191 64.043-25.723.504 3.008 14.129 31.785 2.918 65.582-1.512 4.656 45.059 47.301 19.246 115.754-10.547 27.934-37.117 63.309-103.797 73.254v.016c8.547 13.027 18.816 19.957 18.762 46.832V512c111.809-27.016 196-136.012 196-256C512 115.391 396.609 0 256 0zm0 0" fill="#fff"/></svg>