<svg xmlns="http://www.w3.org/2000/svg" width="512" height="512" viewBox="0 0 345.834 345.834" fill="#df3940" xmlns:v="https://vecta.io/nano"><path d="M339.798 260.429l.385-.094.326-.084.369-.129.324-.119.338-.157.327-.158.312-.184.319-.194.321-.236.27-.202.466-.421.083-.075c.028-.028.052-.059.079-.088l.416-.46.216-.289.221-.301.207-.34.171-.289.169-.351.146-.314.128-.349.12-.343.092-.358.086-.353.065-.425.043-.3.038-.748V92.76a7.5 7.5 0 0 0-7.5-7.5h-236.25c-.066 0-.13.008-.196.01a7.58 7.58 0 0 0-.427.022 6.31 6.31 0 0 0-.337.037 7.04 7.04 0 0 0-.382.058l-.354.073a7.44 7.44 0 0 0-.356.092 7.72 7.72 0 0 0-.346.107l-.349.128-.322.135-.351.169a7.43 7.43 0 0 0-.292.158l-.343.208a8.75 8.75 0 0 0-.274.185 6.93 6.93 0 0 0-.314.235l-.277.231a7.54 7.54 0 0 0-.266.242l-.288.294-.142.145c-.027.03-.048.063-.074.093a7.4 7.4 0 0 0-.27.338l-.19.254a7.72 7.72 0 0 0-.222.343l-.174.286-.175.342-.153.317-.135.345-.124.339-.099.349-.093.36-.062.342-.06.39-.027.328a7.37 7.37 0 0 0-.021.421l-.006.122v46.252a7.5 7.5 0 1 0 15 0v-29.595l66.681 59.037c-.348.245-.683.516-.995.827l-65.687 65.687v-49.288a7.5 7.5 0 1 0-15 0v9.164h-38.75a7.5 7.5 0 1 0 0 15h38.75v43.231a7.5 7.5 0 0 0 7.5 7.5h236.25c.247 0 .494-.013.74-.037l.339-.049.386-.058zm-8.964-25.462l-65.688-65.687c-.042-.042-.087-.077-.13-.117l49.383-41.897a7.5 7.5 0 0 0-9.705-11.437l-84.381 71.59-98.444-87.158h208.965v134.706zm-144.956-55.079c.535-.535.969-1.131 1.308-1.765l28.051 24.835c1.418 1.255 3.194 1.885 4.972 1.885a7.49 7.49 0 0 0 4.853-1.781l28.587-24.254a7.54 7.54 0 0 0 .89 1.08l65.687 65.687H120.191l65.687-65.687zM7.5 170.676h126.667a7.5 7.5 0 1 0 0-15H7.5a7.5 7.5 0 1 0 0 15zm13.125-41.331H77.5a7.5 7.5 0 1 0 0-15H20.625a7.5 7.5 0 1 0 0 15zM62.5 226.51h-55a7.5 7.5 0 1 0 0 15h55a7.5 7.5 0 1 0 0-15z"/></svg>